<svg xmlns="http://www.w3.org/2000/svg" width="59" height="59" viewBox="0 0 59 59"><defs><clipPath id="htfra"><path fill="#fff" d="M0 59V0h59v59zm2-29.502c0 15.188 12.312 27.5 27.5 27.5S57 44.686 57 29.498c0-15.187-12.312-27.5-27.5-27.5S2 14.311 2 29.498z"/></clipPath></defs><g><g><path fill="#283860" d="M29.5 1.998c15.188 0 27.5 12.313 27.5 27.5 0 15.188-12.312 27.5-27.5 27.5S2 44.686 2 29.498c0-15.187 12.312-27.5 27.5-27.5z"/><path fill="none" stroke="#425178" stroke-linecap="round" stroke-linejoin="round" stroke-miterlimit="20" stroke-width="4" d="M29.5 1.998c15.188 0 27.5 12.313 27.5 27.5 0 15.188-12.312 27.5-27.5 27.5S2 44.686 2 29.498c0-15.187 12.312-27.5 27.5-27.5z" clip-path="url(&quot;#htfra&quot;)"/></g><g><path d="M35.548 19.002l-2.879-.004c-3.233 0-5.322 2.125-5.322 5.415v2.496h-2.895a.45.45 0 0 0-.452.448v3.618c0 .247.203.449.452.449h2.894v9.126a.45.45 0 0 0 .453.448h3.776c.25 0 .452-.2.452-.448v-9.126h3.384c.25 0 .452-.202.452-.45l.002-3.617a.448.448 0 0 0-.453-.448h-3.385v-2.116c0-1.018.245-1.534 1.581-1.534h1.94c.25 0 .452-.202.452-.45v-3.357a.452.452 0 0 0-.452-.45z"/><path fill="#fff" d="M35.548 19.002l-2.879-.004c-3.233 0-5.322 2.125-5.322 5.415v2.496h-2.895a.45.45 0 0 0-.452.448v3.618c0 .247.203.449.452.449h2.894v9.126a.45.45 0 0 0 .453.448h3.776c.25 0 .452-.2.452-.448v-9.126h3.384c.25 0 .452-.202.452-.45l.002-3.617a.448.448 0 0 0-.453-.448h-3.385v-2.116c0-1.018.245-1.534 1.581-1.534h1.94c.25 0 .452-.202.452-.45v-3.357a.452.452 0 0 0-.452-.45z"/></g></g></svg>