<svg xmlns="http://www.w3.org/2000/svg" width="40" height="40" viewBox="0 0 40 40"><g><g opacity=""><path d="M39.164 39.163a2.83 2.83 0 0 1-2.94.68l-7.993-2.746a19.618 19.618 0 0 1-8.64 2.024h-.03c-5.147 0-10.01-1.995-13.7-5.618C2.165 29.87.084 25.032.002 19.877c-.043-2.7.455-5.322 1.478-7.794a19.484 19.484 0 0 1 4.25-6.355 19.485 19.485 0 0 1 6.354-4.249A19.436 19.436 0 0 1 19.877.002c5.156.082 9.995 2.163 13.626 5.86 3.631 3.697 5.627 8.572 5.618 13.729a19.62 19.62 0 0 1-2.024 8.64l2.747 7.992a2.829 2.829 0 0 1-.68 2.94zm-18.61-9.638c-.03-.642-.522-1.186-1.186-1.186-.62 0-1.215.546-1.186 1.186.029.642.52 1.186 1.186 1.186.62 0 1.214-.546 1.185-1.186zm4.713-13.651c0-3.254-2.646-5.9-5.9-5.9a5.907 5.907 0 0 0-5.9 5.9 1.186 1.186 0 0 0 2.372 0 3.532 3.532 0 0 1 3.529-3.528 3.532 3.532 0 0 1 3.528 3.528 3.532 3.532 0 0 1-3.528 3.528c-.655 0-1.186.53-1.186 1.185v4.837a1.186 1.186 0 0 0 2.371 0v-3.77a5.91 5.91 0 0 0 4.715-5.78z"/><path fill="#1db2ef" d="M39.164 39.163a2.83 2.83 0 0 1-2.94.68l-7.993-2.746a19.618 19.618 0 0 1-8.64 2.024h-.03c-5.147 0-10.01-1.995-13.7-5.618C2.165 29.87.084 25.032.002 19.877c-.043-2.7.455-5.322 1.478-7.794a19.484 19.484 0 0 1 4.25-6.355 19.485 19.485 0 0 1 6.354-4.249A19.436 19.436 0 0 1 19.877.002c5.156.082 9.995 2.163 13.626 5.86 3.631 3.697 5.627 8.572 5.618 13.729a19.62 19.62 0 0 1-2.024 8.64l2.747 7.992a2.829 2.829 0 0 1-.68 2.94zm-18.61-9.638c-.03-.642-.522-1.186-1.186-1.186-.62 0-1.215.546-1.186 1.186.029.642.52 1.186 1.186 1.186.62 0 1.214-.546 1.185-1.186zm4.713-13.651c0-3.254-2.646-5.9-5.9-5.9a5.907 5.907 0 0 0-5.9 5.9 1.186 1.186 0 0 0 2.372 0 3.532 3.532 0 0 1 3.529-3.528 3.532 3.532 0 0 1 3.528 3.528 3.532 3.532 0 0 1-3.528 3.528c-.655 0-1.186.53-1.186 1.185v4.837a1.186 1.186 0 0 0 2.371 0v-3.77a5.91 5.91 0 0 0 4.715-5.78z"/></g></g></svg>