<svg xmlns="http://www.w3.org/2000/svg" width="59" height="59" viewBox="0 0 59 59"><defs><clipPath id="42xia"><path fill="#fff" d="M0 59V0h59v59zm2-29.502c0 15.188 12.312 27.5 27.5 27.5S57 44.686 57 29.498c0-15.187-12.312-27.5-27.5-27.5S2 14.311 2 29.498z"/></clipPath></defs><g><g><path fill="#283860" d="M29.5 1.998c15.188 0 27.5 12.313 27.5 27.5 0 15.188-12.312 27.5-27.5 27.5S2 44.686 2 29.498c0-15.187 12.312-27.5 27.5-27.5z"/><path fill="none" stroke="#425178" stroke-linecap="round" stroke-linejoin="round" stroke-miterlimit="20" stroke-width="4" d="M29.5 1.998c15.188 0 27.5 12.313 27.5 27.5 0 15.188-12.312 27.5-27.5 27.5S2 44.686 2 29.498c0-15.187 12.312-27.5 27.5-27.5z" clip-path="url(&quot;#42xia&quot;)"/></g><g><path d="M20 26.248h4.472v13.75H20zm20 4.472v9.278h-4.472v-8.75c-1.426-3.457-4.806 1.25-4.806 1.25v7.5H26.25v-13.75h4.472v2.63c.545-.734 2.199-2.63 4.806-2.63.306 0 .565.035.803.082.061.01.121.02.181.035.05.013.095.03.143.044 1.921.502 3.345 2.233 3.345 4.31zM22.187 19.999a2.187 2.187 0 1 1 .001 4.374 2.187 2.187 0 0 1 0-4.374z"/><path fill="#fff" d="M20 26.248h4.472v13.75H20zm20 4.472v9.278h-4.472v-8.75c-1.426-3.457-4.806 1.25-4.806 1.25v7.5H26.25v-13.75h4.472v2.63c.545-.734 2.199-2.63 4.806-2.63.306 0 .565.035.803.082.061.01.121.02.181.035.05.013.095.03.143.044 1.921.502 3.345 2.233 3.345 4.31zM22.187 19.999a2.187 2.187 0 1 1 .001 4.374 2.187 2.187 0 0 1 0-4.374z"/></g></g></svg>