<svg xmlns="http://www.w3.org/2000/svg" width="20" height="19" viewBox="0 0 20 19"><defs><clipPath id="g50da"><path fill="#fff" d="M.142 18.846V.154h19.716v18.692zM10.378 2.25a.413.413 0 0 0-.756 0L7.586 6.984l-5.21.44a.402.402 0 0 0-.234.708l3.953 3.367-1.184 5.008c-.083.348.3.621.611.437L10 14.289l4.478 2.655c.31.185.694-.089.612-.437L13.906 11.5l3.952-3.367a.402.402 0 0 0-.234-.707l-5.21-.44-2.036-4.736z"/></clipPath></defs><g><g><path d="M10.378 2.249l2.035 4.736 5.211.44c.361.03.508.474.234.707L13.906 11.5l1.184 5.008c.082.348-.301.622-.612.437L10 14.289l-4.478 2.655c-.31.184-.694-.09-.611-.437L6.095 11.5 2.142 8.132a.402.402 0 0 1 .234-.708l5.21-.44 2.036-4.735a.413.413 0 0 1 .756 0z"/><path fill="#fff" d="M10.378 2.249l2.035 4.736 5.211.44c.361.03.508.474.234.707L13.906 11.5l1.184 5.008c.082.348-.301.622-.612.437L10 14.289l-4.478 2.655c-.31.184-.694-.09-.611-.437L6.095 11.5 2.142 8.132a.402.402 0 0 1 .234-.708l5.21-.44 2.036-4.735a.413.413 0 0 1 .756 0z"/><path fill="none" stroke="#283860" stroke-linecap="round" stroke-linejoin="round" stroke-miterlimit="20" stroke-width="4" d="M10.378 2.249l2.035 4.736v0l5.211.44c.361.03.508.474.234.707L13.906 11.5v0l1.184 5.008c.082.348-.301.622-.612.437L10 14.289v0l-4.478 2.655c-.31.184-.694-.09-.611-.437L6.095 11.5v0L2.142 8.132a.402.402 0 0 1 .234-.708l5.21-.44v0l2.036-4.735a.413.413 0 0 1 .756 0z" clip-path="url(&quot;#g50da&quot;)"/></g></g></svg>