<svg xmlns="http://www.w3.org/2000/svg" width="58" height="55" viewBox="0 0 58 55"><g><g><path d="M30.192.913l7.334 17.356 18.777 1.612c1.302.112 1.832 1.737.844 2.59L42.904 34.81l4.268 18.354c.296 1.276-1.086 2.278-2.205 1.6L28.83 45.035l-16.137 9.73c-1.121.675-2.5-.329-2.204-1.6l4.268-18.355L.51 22.47c-.989-.855-.462-2.48.843-2.59l18.778-1.614L27.466.913c.509-1.21 2.217-1.21 2.726 0z"/><path fill="#f6830d" d="M30.192.913l7.334 17.356 18.777 1.612c1.302.112 1.832 1.737.844 2.59L42.904 34.81l4.268 18.354c.296 1.276-1.086 2.278-2.205 1.6L28.83 45.035l-16.137 9.73c-1.121.675-2.5-.329-2.204-1.6l4.268-18.355L.51 22.47c-.989-.855-.462-2.48.843-2.59l18.778-1.614L27.466.913c.509-1.21 2.217-1.21 2.726 0z"/></g></g></svg>