<svg xmlns="http://www.w3.org/2000/svg" width="59" height="59" viewBox="0 0 59 59"><defs><clipPath id="maiga"><path fill="#fff" d="M0 59V0h59v59zm2-29.502c0 15.188 12.312 27.5 27.5 27.5S57 44.686 57 29.498c0-15.187-12.312-27.5-27.5-27.5S2 14.311 2 29.498z"/></clipPath></defs><g><g><path fill="#283860" d="M29.5 1.998c15.188 0 27.5 12.313 27.5 27.5 0 15.188-12.312 27.5-27.5 27.5S2 44.686 2 29.498c0-15.187 12.312-27.5 27.5-27.5z"/><path fill="none" stroke="#425178" stroke-linecap="round" stroke-linejoin="round" stroke-miterlimit="20" stroke-width="4" d="M29.5 1.998c15.188 0 27.5 12.313 27.5 27.5 0 15.188-12.312 27.5-27.5 27.5S2 44.686 2 29.498c0-15.187 12.312-27.5 27.5-27.5z" clip-path="url(&quot;#maiga&quot;)"/></g><g><path d="M41.338 20.35c-.952.549-2.007.948-3.129 1.164a4.972 4.972 0 0 0-3.593-1.515c-2.72 0-4.924 2.148-4.924 4.797 0 .375.044.742.128 1.092a14.1 14.1 0 0 1-10.148-5.013 4.676 4.676 0 0 0-.666 2.412c0 1.665.87 3.133 2.19 3.992a5.019 5.019 0 0 1-2.23-.601v.06c0 2.323 1.697 4.262 3.948 4.705a5.046 5.046 0 0 1-2.224.08c.627 1.906 2.445 3.293 4.599 3.333a10.045 10.045 0 0 1-6.115 2.053c-.397 0-.79-.023-1.174-.066A14.21 14.21 0 0 0 25.547 39c9.056 0 14.008-7.311 14.008-13.651l-.016-.621a9.78 9.78 0 0 0 2.46-2.48c-.882.38-1.83.64-2.826.755a4.844 4.844 0 0 0 2.165-2.653z"/><path fill="#fff" d="M41.338 20.35c-.952.549-2.007.948-3.129 1.164a4.972 4.972 0 0 0-3.593-1.515c-2.72 0-4.924 2.148-4.924 4.797 0 .375.044.742.128 1.092a14.1 14.1 0 0 1-10.148-5.013 4.676 4.676 0 0 0-.666 2.412c0 1.665.87 3.133 2.19 3.992a5.019 5.019 0 0 1-2.23-.601v.06c0 2.323 1.697 4.262 3.948 4.705a5.046 5.046 0 0 1-2.224.08c.627 1.906 2.445 3.293 4.599 3.333a10.045 10.045 0 0 1-6.115 2.053c-.397 0-.79-.023-1.174-.066A14.21 14.21 0 0 0 25.547 39c9.056 0 14.008-7.311 14.008-13.651l-.016-.621a9.78 9.78 0 0 0 2.46-2.48c-.882.38-1.83.64-2.826.755a4.844 4.844 0 0 0 2.165-2.653z"/></g></g></svg>