<svg xmlns="http://www.w3.org/2000/svg" width="93" height="93" viewBox="0 0 93 93"><defs><mask id="cphlb" width="2" height="2" x="-1" y="-1"><path fill="#fff" d="M24 22h45v45H24z"/><path d="M54.385 44.528c0 .357-.17.692-.466.909l-9.34 6.784a1.125 1.125 0 0 1-1.174.097 1.121 1.121 0 0 1-.615-1.004V37.738a1.127 1.127 0 0 1 1.79-.908l9.339 6.79c.29.213.47.546.466.908zm14.607-.025c0 12.42-10.07 22.485-22.492 22.485-12.423 0-22.492-10.066-22.492-22.485 0-12.424 10.069-22.492 22.492-22.492s22.492 10.068 22.492 22.492zm-3.76 0c0-10.345-8.387-18.738-18.732-18.738-10.346 0-18.735 8.395-18.735 18.738 0 10.348 8.389 18.731 18.735 18.731 10.345 0 18.735-8.383 18.732-18.731z"/></mask><filter id="cphla" width="125" height="127" x="-16" y="-18" filterUnits="userSpaceOnUse"><feOffset dy="2" in="SourceGraphic" result="FeOffset1023Out"/><feGaussianBlur in="FeOffset1023Out" result="FeGaussianBlur1024Out" stdDeviation="12 12"/></filter></defs><g><g opacity="-1"><g filter="url(#cphla)"><path fill="none" d="M54.385 44.528c0 .357-.17.692-.466.909l-9.34 6.784a1.125 1.125 0 0 1-1.174.097 1.121 1.121 0 0 1-.615-1.004V37.738a1.127 1.127 0 0 1 1.79-.908l9.339 6.79c.29.213.47.546.466.908zm14.607-.025c0 12.42-10.07 22.485-22.492 22.485-12.423 0-22.492-10.066-22.492-22.485 0-12.424 10.069-22.492 22.492-22.492s22.492 10.068 22.492 22.492zm-3.76 0c0-10.345-8.387-18.738-18.732-18.738-10.346 0-18.735 8.395-18.735 18.738 0 10.348 8.389 18.731 18.735 18.731 10.345 0 18.735-8.383 18.732-18.731z" mask="url(&quot;#cphlb&quot;)"/><path fill="#283860" fill-opacity=".25" d="M54.385 44.528c0 .357-.17.692-.466.909l-9.34 6.784a1.125 1.125 0 0 1-1.174.097 1.121 1.121 0 0 1-.615-1.004V37.738a1.127 1.127 0 0 1 1.79-.908l9.339 6.79c.29.213.47.546.466.908zm14.607-.025c0 12.42-10.07 22.485-22.492 22.485-12.423 0-22.492-10.066-22.492-22.485 0-12.424 10.069-22.492 22.492-22.492s22.492 10.068 22.492 22.492zm-3.76 0c0-10.345-8.387-18.738-18.732-18.738-10.346 0-18.735 8.395-18.735 18.738 0 10.348 8.389 18.731 18.735 18.731 10.345 0 18.735-8.383 18.732-18.731z"/></g><path d="M54.385 44.528c0 .357-.17.692-.466.909l-9.34 6.784a1.125 1.125 0 0 1-1.174.097 1.121 1.121 0 0 1-.615-1.004V37.738a1.127 1.127 0 0 1 1.79-.908l9.339 6.79c.29.213.47.546.466.908zm14.607-.025c0 12.42-10.07 22.485-22.492 22.485-12.423 0-22.492-10.066-22.492-22.485 0-12.424 10.069-22.492 22.492-22.492s22.492 10.068 22.492 22.492zm-3.76 0c0-10.345-8.387-18.738-18.732-18.738-10.346 0-18.735 8.395-18.735 18.738 0 10.348 8.389 18.731 18.735 18.731 10.345 0 18.735-8.383 18.732-18.731z"/><path fill="#fff" d="M54.385 44.528c0 .357-.17.692-.466.909l-9.34 6.784a1.125 1.125 0 0 1-1.174.097 1.121 1.121 0 0 1-.615-1.004V37.738a1.127 1.127 0 0 1 1.79-.908l9.339 6.79c.29.213.47.546.466.908zm14.607-.025c0 12.42-10.07 22.485-22.492 22.485-12.423 0-22.492-10.066-22.492-22.485 0-12.424 10.069-22.492 22.492-22.492s22.492 10.068 22.492 22.492zm-3.76 0c0-10.345-8.387-18.738-18.732-18.738-10.346 0-18.735 8.395-18.735 18.738 0 10.348 8.389 18.731 18.735 18.731 10.345 0 18.735-8.383 18.732-18.731z"/></g></g></svg>