<svg xmlns="http://www.w3.org/2000/svg" width="59" height="59" viewBox="0 0 59 59"><defs><clipPath id="cq19a"><path fill="#fff" d="M0 59V0h59v59zm2-29.502c0 15.188 12.312 27.5 27.5 27.5S57 44.686 57 29.498c0-15.187-12.312-27.5-27.5-27.5S2 14.311 2 29.498z"/></clipPath></defs><g><g><path fill="#283860" d="M29.5 1.998c15.188 0 27.5 12.313 27.5 27.5 0 15.188-12.312 27.5-27.5 27.5S2 44.686 2 29.498c0-15.187 12.312-27.5 27.5-27.5z"/><path fill="none" stroke="#425178" stroke-linecap="round" stroke-linejoin="round" stroke-miterlimit="20" stroke-width="4" d="M29.5 1.998c15.188 0 27.5 12.313 27.5 27.5 0 15.188-12.312 27.5-27.5 27.5S2 44.686 2 29.498c0-15.187 12.312-27.5 27.5-27.5z" clip-path="url(&quot;#cq19a&quot;)"/></g><g><path d="M42 29.495V29.508c0 3.597-.357 5.665-1.061 6.845-.678 1.193-1.414 1.409-2.913 1.51-1.498.084-5.262.135-8.523.135-3.267 0-7.033-.05-8.53-.137-1.495-.1-2.231-.317-2.915-1.51-.699-1.18-1.058-3.247-1.058-6.845v-.008-.004c0-3.614.36-5.666 1.058-6.857.684-1.195 1.421-1.413 2.917-1.498 1.495-.1 5.26-.14 8.528-.14 3.26 0 7.025.04 8.522.142 1.498.083 2.234.303 2.912 1.496C41.643 23.828 42 25.88 42 29.495zm-7.813.003l-7.812-4.636v9.273z"/><path fill="#fff" d="M42 29.495V29.508c0 3.597-.357 5.665-1.061 6.845-.678 1.193-1.414 1.409-2.913 1.51-1.498.084-5.262.135-8.523.135-3.267 0-7.033-.05-8.53-.137-1.495-.1-2.231-.317-2.915-1.51-.699-1.18-1.058-3.247-1.058-6.845v-.008-.004c0-3.614.36-5.666 1.058-6.857.684-1.195 1.421-1.413 2.917-1.498 1.495-.1 5.26-.14 8.528-.14 3.26 0 7.025.04 8.522.142 1.498.083 2.234.303 2.912 1.496C41.643 23.828 42 25.88 42 29.495zm-7.813.003l-7.812-4.636v9.273z"/></g></g></svg>